<svg width="379" height="330" viewBox="0 0 379 330" fill="none" xmlns="http://www.w3.org/2000/svg">
<g clip-path="url(#clip0_102_47)">
<path d="M339.279 228.532C241.931 304.001 139.932 317.011 29.0734 274.87C35.3972 262.188 42.3103 266.039 47.4708 267.786C86.9425 279.088 126.123 276.687 164.983 274.892C221.003 272.438 271.613 247.661 319.838 211.118C321.991 209.747 323.647 207.284 327.715 202.279C300.754 197.101 276.055 213.431 251.67 199.971C251.811 197.667 251.513 194.837 251.654 192.533C268.515 189.044 285.755 185.515 302.556 181.46C319.358 177.405 335.721 172.824 352.582 169.335C364.959 166.89 371.212 175.389 368.453 192.847C365.093 215.518 359.283 236.73 354.289 258.429C353.77 260.772 352.932 263.722 351.536 265.013C347.609 267.715 343.503 268.719 339.138 270.894C337.785 265.314 335.238 259.287 335.081 254.153C335.124 247.281 337.18 241.342 339.279 228.532Z" fill="#FF96C7"/>
</g>
<path d="M246 27.5V82.5M136 27.5V82.5M67.25 137.5H314.75M94.75 55H287.25C302.438 55 314.75 67.3122 314.75 82.5V275C314.75 290.188 302.438 302.5 287.25 302.5H94.75C79.5622 302.5 67.25 290.188 67.25 275V82.5C67.25 67.3122 79.5622 55 94.75 55Z" stroke="white" stroke-width="20" stroke-linecap="round" stroke-linejoin="round"/>
<path d="M55.0049 131.177C155.58 71.6536 254.327 69.5649 356 118.646C348.685 129.61 342.468 125.434 337.714 123.345C301.141 109.247 263.471 107.681 226.166 105.592C172.404 102.459 121.568 120.212 71.8284 148.93C69.6341 149.974 67.8054 152.062 63.4167 156.239C88.652 163.549 113.887 151.018 135.831 165.638C135.465 167.726 135.465 170.337 135.1 172.426C118.642 173.992 101.818 175.559 85.3604 177.647C68.9026 179.736 52.8105 182.346 36.3527 183.913C24.2837 184.957 19.1635 176.603 23.5522 160.939C29.0381 140.575 36.7185 121.779 43.6673 102.46C44.3988 100.371 45.4959 97.7603 46.9589 96.716C50.9819 94.6275 55.0049 94.1053 59.3937 92.5389C60.1251 97.7602 61.9538 103.504 61.588 108.203C60.8566 114.469 58.2965 119.69 55.0049 131.177Z" fill="#FF96C7"/>
<defs>
<clipPath id="clip0_102_47">
<rect width="347.71" height="109" fill="white" transform="translate(21.6272 204.024) rotate(-6)"/>
</clipPath>
</defs>
</svg>
